<svg width="190" height="197" viewBox="0 0 190 197" fill="none" xmlns="http://www.w3.org/2000/svg">
<path d="M162.035 103.151C124.908 81.7166 64.9183 81.7166 28.033 103.151C-8.85242 124.586 -8.65325 159.335 28.4567 180.77C65.5667 202.204 125.573 202.204 162.459 180.77C199.344 159.335 199.158 124.586 162.035 103.151Z" fill="#1F018A"/>
<path d="M136.876 156.776C146.474 162.319 146.525 171.303 136.99 176.846C127.455 182.389 111.941 182.389 102.338 176.846C92.7352 171.303 92.6886 162.319 102.228 156.776C111.767 151.233 127.277 151.233 136.876 156.776Z" fill="#D5BFDB"/>
<path d="M144.639 142.151C151.762 146.262 163.285 146.262 170.358 142.151C173.896 140.092 175.655 137.396 175.638 134.701C175.621 132.006 173.833 129.311 170.273 127.251C163.145 123.141 151.627 123.141 144.554 127.251C141.016 129.311 139.257 132.006 139.27 134.701C139.282 137.396 141.075 140.092 144.639 142.151Z" fill="#D5BFDB"/>
<path d="M10.4547 150.054C14.6034 152.453 21.3118 152.453 25.4309 150.054C27.4947 148.859 28.5202 147.287 28.5117 145.719C28.5032 144.151 27.4608 142.575 25.3843 141.38C21.2355 138.981 14.5271 138.981 10.4038 141.38C8.34426 142.575 7.31873 144.147 7.3272 145.719C7.33568 147.291 8.37816 148.859 10.4547 150.054Z" fill="#D5BFDB"/>
<path d="M25.9016 159.238L28.2959 160.636C28.5621 160.789 28.8639 160.87 29.171 160.87C29.4781 160.87 29.7799 160.789 30.0461 160.636L95.5448 123.255C95.6142 123.219 95.6724 123.165 95.7131 123.099C95.7538 123.032 95.7753 122.956 95.7753 122.878C95.7753 122.8 95.7538 122.723 95.7131 122.657C95.6724 122.59 95.6142 122.536 95.5448 122.501L93.1462 121.102C92.8811 120.948 92.5799 120.867 92.2732 120.867C91.9666 120.867 91.6654 120.948 91.4003 121.102L25.9058 158.479C25.8351 158.514 25.7755 158.568 25.7336 158.634C25.6918 158.701 25.6694 158.778 25.669 158.857C25.6685 158.936 25.69 159.013 25.7311 159.08C25.7722 159.148 25.8313 159.202 25.9016 159.238Z" fill="#D5BFDB"/>
<path d="M110.778 20.1462L112.253 19.2902L127.818 28.2445V29.9481L110.778 20.1462Z" fill="#1F018A"/>
<path d="M110.779 20.1462L127.819 29.9482V31.889L110.774 22.0998L110.779 20.1462Z" fill="#E0E0E0"/>
<path d="M136.718 35.0672L138.193 34.2112L153.758 43.1655V44.8691L136.718 35.0672Z" fill="#1F018A"/>
<path d="M136.718 35.0674L153.758 44.8693V46.8144L136.714 37.021L136.718 35.0674Z" fill="#E0E0E0"/>
<path d="M162.657 49.9928L164.132 49.1326L179.697 58.0869V59.7905L162.657 49.9928Z" fill="#1F018A"/>
<path d="M162.657 49.9927L179.697 59.7904V61.7355L162.652 51.9463L162.657 49.9927Z" fill="#E0E0E0"/>
<path d="M110.863 3.78425L112.334 2.92822L112.249 47.0093L110.774 47.8611L110.863 3.78425Z" fill="#F0F0F0"/>
<path d="M110.774 47.8611L112.249 47.0093L129.204 56.7392L127.734 57.5952L110.774 47.8611Z" fill="#1F018A"/>
<path d="M109.173 0.856079L129.514 12.548L129.416 60.5236L109.075 48.8316L109.173 0.856079ZM127.734 57.5953L127.819 13.5227L110.868 3.77589L110.779 47.8485L127.73 57.5953" fill="#E0E0E0"/>
<path d="M109.173 0.856026L110.648 0L130.993 11.692L129.518 12.548L109.173 0.856026Z" fill="#1F018A"/>
<path d="M129.518 12.548L130.993 11.692L130.896 59.6676L129.421 60.5236L129.518 12.548Z" fill="#F0F0F0"/>
<path d="M136.803 18.7054L138.273 17.8494L138.189 61.9304L136.714 62.7865L136.803 18.7054Z" fill="#F0F0F0"/>
<path d="M136.714 62.7864L138.189 61.9304L155.144 71.6645L153.673 72.5206L136.714 62.7864Z" fill="#1F018A"/>
<path d="M135.112 15.7812L155.453 27.469L155.356 75.4445L135.015 63.7568L135.112 15.7812ZM153.673 72.5205L153.758 28.4479L136.807 18.7011L136.718 62.7737L153.669 72.5205" fill="#E0E0E0"/>
<path d="M135.111 15.7813L136.586 14.9253L156.931 26.6172L155.457 27.4733L135.111 15.7813Z" fill="#1F018A"/>
<path d="M155.458 27.4732L156.933 26.6172L156.835 74.5885L155.36 75.4445L155.458 27.4732Z" fill="#F0F0F0"/>
<path d="M162.741 33.6308L164.212 32.7748L164.127 76.8516L162.652 77.7076L162.741 33.6308Z" fill="#F0F0F0"/>
<path d="M162.652 77.7076L164.127 76.8516L181.082 86.5857L179.612 87.4417L162.652 77.7076Z" fill="#1F018A"/>
<path d="M161.052 30.7236L181.393 42.4156L181.295 90.3912L160.954 78.6992L161.052 30.7236ZM179.613 87.4629L179.698 43.3903L162.747 33.6434L162.658 77.716L179.609 87.4629" fill="#E0E0E0"/>
<path d="M161.051 30.7025L162.526 29.8464L182.871 41.5384L181.396 42.3944L161.051 30.7025Z" fill="#1F018A"/>
<path d="M181.397 42.3945L182.872 41.5385L182.775 89.514L181.3 90.3701L181.397 42.3945Z" fill="#F0F0F0"/>
<path d="M25.5195 131.705L17.4677 131.938L9.41601 131.705C9.06851 137.138 10.128 142.672 11.59 145.376C11.9356 146.071 12.4937 146.638 13.1834 146.995C15.5565 148.364 19.3917 148.364 21.7521 146.995C22.4519 146.633 23.0112 146.049 23.3413 145.334C24.8118 142.6 25.8627 137.091 25.5195 131.705Z" fill="#C99FD7"/>
<path d="M23.1425 128.412C26.2954 130.23 26.3123 133.18 23.1806 134.998C20.0489 136.816 14.9594 136.82 11.8065 134.998C8.65361 133.176 8.63666 130.23 11.7684 128.412C14.9001 126.594 19.9938 126.59 23.1425 128.412Z" fill="#EBEBEB"/>
<path d="M21.8963 129.133C24.3542 130.552 24.3669 132.858 21.926 134.273C19.485 135.689 15.51 135.693 13.0521 134.273C10.5942 132.853 10.5815 130.552 13.0225 129.133C15.4634 127.713 19.4384 127.717 21.8963 129.133Z" fill="#E0E0E0"/>
<g opacity="0.15">
<path d="M21.8953 129.133C24.3532 130.552 24.3659 132.858 21.925 134.273C19.4841 135.689 15.509 135.693 13.0511 134.273C10.5933 132.853 10.5805 130.552 13.0215 129.133C15.4624 127.713 19.4374 127.717 21.8953 129.133Z" fill="black"/>
</g>
<path d="M30.699 97.3835C12.5742 103.316 12.4089 115.445 16.4941 124.081C17.5281 125.827 20.6471 126.768 23.3593 116.03L18.6003 116.64L24.1475 113.83L25.5883 109.52L20.9607 109.864L26.8342 107.393C27.9138 103.98 29.2045 100.637 30.699 97.3835Z" fill="#1F018A"/>
<path opacity="0.2" d="M30.699 97.3835C12.5742 103.316 12.4089 115.445 16.4941 124.081C17.5281 125.827 20.6471 126.768 23.3593 116.03L18.6003 116.64L24.1475 113.83L25.5883 109.52L20.9607 109.864L26.8342 107.393C27.9138 103.98 29.2045 100.637 30.699 97.3835Z" fill="black"/>
<path d="M25.5708 100.414C16.0062 107.669 15.1587 115.987 17.8497 124.67C16.8962 117.026 15.8622 109.296 25.5708 100.414Z" fill="#C99FD7"/>
<path d="M0 99.7026C17.8664 102.216 20.0318 113.484 17.6629 122.205C16.9934 124.002 14.2431 125.396 9.93329 115.848L14.4677 115.624L8.83147 113.929L6.77616 110.14L11.141 109.716L5.26329 108.39C3.69019 105.388 1.93239 102.487 0 99.7026Z" fill="#1F018A"/>
<path opacity="0.2" d="M0 99.7026C17.8664 102.216 20.0318 113.484 17.6629 122.205C16.9934 124.002 14.2431 125.396 9.93329 115.848L14.4677 115.624L8.83147 113.929L6.77616 110.14L11.141 109.716L5.26329 108.39C3.69019 105.388 1.93239 102.487 0 99.7026Z" fill="#C99FD7"/>
<path d="M5.27539 101.665C15.3824 106.835 17.5649 114.437 16.497 122.972C16.1156 115.7 15.7935 108.331 5.27539 101.665Z" fill="#C99FD7"/>
<path d="M35.9237 113.924C19.5405 114.191 16.3241 124.094 17.4852 132.226C17.909 133.922 20.2101 135.485 25.164 127.361L21.0916 126.654L26.3633 125.755L28.639 122.586L24.753 121.691L30.2027 121.157C31.9589 118.631 33.8696 116.215 35.9237 113.924Z" fill="#1F018A"/>
<path d="M30.9473 115.11C21.2598 118.636 18.4417 125.226 18.4502 133.057C19.6071 126.539 20.7259 119.933 30.9473 115.11Z" fill="#C99FD7"/>
<path d="M156.276 118.75C156.391 131.413 156.526 143.605 156.526 143.605C156.533 143.686 156.562 143.764 156.61 143.831C156.658 143.897 156.723 143.949 156.798 143.982C157 144.084 157.223 144.138 157.45 144.138C157.677 144.138 157.901 144.084 158.103 143.982C158.177 143.948 158.241 143.896 158.287 143.829C158.334 143.763 158.363 143.686 158.37 143.605C158.37 143.605 158.505 131.417 158.62 118.754C157.849 118.784 157.065 118.784 156.276 118.75Z" fill="#E0E0E0"/>
<path d="M140.897 134.472C140.905 134.554 140.934 134.631 140.982 134.698C141.029 134.764 141.094 134.816 141.169 134.849C141.371 134.952 141.595 135.005 141.821 135.005C142.048 135.005 142.272 134.952 142.474 134.849C142.548 134.816 142.611 134.763 142.658 134.697C142.705 134.63 142.733 134.553 142.741 134.472C142.741 134.472 143.33 125.764 144.169 115.402C143.378 114.913 142.639 114.345 141.961 113.707C141.283 124.802 140.897 134.472 140.897 134.472Z" fill="#E0E0E0"/>
<path d="M172.172 134.472C172.18 134.553 172.208 134.63 172.255 134.697C172.302 134.763 172.366 134.815 172.439 134.849C172.642 134.952 172.865 135.005 173.092 135.005C173.319 135.005 173.542 134.952 173.744 134.849C173.818 134.815 173.882 134.763 173.93 134.697C173.977 134.63 174.007 134.553 174.016 134.472C174.016 134.472 173.651 124.84 172.952 113.783C172.273 114.413 171.534 114.974 170.744 115.457C171.587 125.789 172.172 134.472 172.172 134.472Z" fill="#E0E0E0"/>
<path opacity="0.1" d="M156.276 118.75C156.391 131.413 156.526 143.605 156.526 143.605C156.533 143.686 156.562 143.764 156.61 143.831C156.658 143.897 156.723 143.949 156.798 143.982C157 144.084 157.223 144.138 157.45 144.138C157.677 144.138 157.901 144.084 158.103 143.982C158.177 143.948 158.241 143.896 158.287 143.829C158.334 143.763 158.363 143.686 158.37 143.605C158.37 143.605 158.505 131.417 158.62 118.754C157.849 118.784 157.065 118.784 156.276 118.75Z" fill="black"/>
<path opacity="0.1" d="M140.897 134.472C140.905 134.554 140.934 134.631 140.982 134.698C141.029 134.764 141.094 134.816 141.169 134.849C141.371 134.952 141.595 135.005 141.821 135.005C142.048 135.005 142.272 134.952 142.474 134.849C142.548 134.816 142.611 134.763 142.658 134.697C142.705 134.63 142.733 134.553 142.741 134.472C142.741 134.472 143.33 125.764 144.169 115.402C143.378 114.913 142.639 114.345 141.961 113.707C141.283 124.802 140.897 134.472 140.897 134.472Z" fill="black"/>
<path opacity="0.1" d="M172.172 134.472C172.18 134.553 172.208 134.63 172.255 134.697C172.302 134.763 172.366 134.815 172.439 134.849C172.642 134.952 172.865 135.005 173.092 135.005C173.319 135.005 173.542 134.952 173.744 134.849C173.818 134.815 173.882 134.763 173.93 134.697C173.977 134.63 174.007 134.553 174.016 134.472C174.016 134.472 173.651 124.84 172.952 113.783C172.273 114.413 171.534 114.974 170.744 115.457C171.587 125.789 172.172 134.472 172.172 134.472Z" fill="black"/>
<path d="M175.638 106.198C175.638 108.893 173.896 111.588 170.358 113.644C163.276 117.759 151.762 117.759 144.639 113.644C141.075 111.588 139.286 108.893 139.27 106.198V108.245C139.27 110.148 140.181 112.059 141.961 113.728C142.638 114.366 143.378 114.934 144.168 115.424L144.639 115.708C147.885 117.581 152.046 118.598 156.284 118.763C157.064 118.797 157.848 118.797 158.628 118.763C162.903 118.615 167.103 117.593 170.358 115.703L170.743 115.466C171.533 114.983 172.273 114.422 172.951 113.792C174.752 112.097 175.651 110.177 175.638 108.253V106.198Z" fill="#E0E0E0"/>
<path opacity="0.1" d="M175.638 106.198C175.638 108.893 173.896 111.588 170.358 113.644C163.276 117.759 151.762 117.759 144.639 113.644C141.075 111.588 139.286 108.893 139.27 106.198V108.245C139.27 110.148 140.181 112.059 141.961 113.728C142.638 114.366 143.378 114.934 144.168 115.424L144.639 115.708C147.885 117.581 152.046 118.598 156.284 118.763C157.064 118.797 157.848 118.797 158.628 118.763C162.903 118.615 167.103 117.593 170.358 115.703L170.743 115.466C171.533 114.983 172.273 114.422 172.951 113.792C174.752 112.097 175.651 110.177 175.638 108.253V106.198Z" fill="black"/>
<path d="M144.639 113.644C151.762 117.759 163.285 117.759 170.358 113.644C173.896 111.588 175.655 108.893 175.638 106.198C175.621 103.503 173.833 100.808 170.273 98.748C163.145 94.6374 151.627 94.6374 144.554 98.748C141.016 100.808 139.257 103.503 139.27 106.198C139.282 108.893 141.075 111.588 144.639 113.644Z" fill="#E0E0E0"/>
<g opacity="0.3">
<path d="M156.275 118.75C156.275 119.598 156.275 120.445 156.297 121.293C157.064 121.322 157.831 121.322 158.598 121.293C158.598 120.445 158.598 119.598 158.619 118.75C157.848 118.784 157.064 118.784 156.275 118.75Z" fill="black"/>
<path d="M141.96 113.728C141.914 114.538 141.863 115.339 141.816 116.127C142.477 116.764 143.202 117.332 143.978 117.822C144.037 117.029 144.105 116.224 144.168 115.411C143.378 114.925 142.639 114.361 141.96 113.728Z" fill="black"/>
<path d="M172.951 113.783C172.272 114.413 171.533 114.974 170.743 115.457C170.811 116.271 170.876 117.075 170.938 117.868C171.713 117.378 172.436 116.81 173.095 116.173C173.048 115.394 173.002 114.593 172.951 113.783Z" fill="black"/>
</g>
<g opacity="0.5">
<path d="M156.276 118.75C156.391 131.413 156.526 143.605 156.526 143.605C156.533 143.686 156.562 143.764 156.61 143.831C156.658 143.897 156.723 143.949 156.798 143.982C157 144.084 157.223 144.138 157.45 144.138C157.677 144.138 157.901 144.084 158.103 143.982C158.177 143.948 158.241 143.896 158.287 143.829C158.334 143.763 158.363 143.686 158.37 143.605C158.37 143.605 158.505 131.417 158.62 118.754C157.849 118.784 157.065 118.784 156.276 118.75Z" fill="#E0E0E0"/>
<path d="M140.897 134.472C140.905 134.554 140.934 134.631 140.982 134.698C141.029 134.764 141.094 134.816 141.169 134.849C141.371 134.952 141.595 135.005 141.821 135.005C142.048 135.005 142.272 134.952 142.474 134.849C142.548 134.816 142.611 134.763 142.658 134.697C142.705 134.63 142.733 134.553 142.741 134.472C142.741 134.472 143.33 125.764 144.169 115.402C143.378 114.913 142.639 114.345 141.961 113.707C141.283 124.802 140.897 134.472 140.897 134.472Z" fill="#E0E0E0"/>
<path d="M172.172 134.472C172.18 134.553 172.208 134.63 172.255 134.697C172.302 134.763 172.366 134.815 172.439 134.849C172.642 134.952 172.865 135.005 173.092 135.005C173.319 135.005 173.542 134.952 173.744 134.849C173.818 134.815 173.882 134.763 173.93 134.697C173.977 134.63 174.007 134.553 174.016 134.472C174.016 134.472 173.651 124.84 172.952 113.783C172.273 114.413 171.534 114.974 170.744 115.457C171.587 125.789 172.172 134.472 172.172 134.472Z" fill="#E0E0E0"/>
<path d="M175.638 106.198C175.638 108.893 173.896 111.588 170.358 113.644C163.276 117.759 151.762 117.759 144.639 113.644C141.075 111.588 139.286 108.893 139.27 106.198V108.245C139.27 110.148 140.181 112.059 141.961 113.728C142.638 114.366 143.378 114.934 144.168 115.424L144.639 115.708C147.885 117.581 152.046 118.598 156.284 118.763C157.064 118.797 157.848 118.797 158.628 118.763C162.903 118.615 167.103 117.593 170.358 115.703L170.743 115.466C171.533 114.983 172.273 114.422 172.951 113.792C174.752 112.097 175.651 110.177 175.638 108.253V106.198Z" fill="#CCCACD"/>
<path d="M144.639 113.644C151.762 117.759 163.285 117.759 170.358 113.644C173.896 111.588 175.655 108.893 175.638 106.198C175.621 103.503 173.833 100.808 170.273 98.748C163.145 94.6374 151.627 94.6374 144.554 98.748C141.016 100.808 139.257 103.503 139.27 106.198C139.282 108.893 141.075 111.588 144.639 113.644Z" fill="#CCCACD"/>
</g>
<path d="M163.549 94.9637L157.421 95.1375L151.293 94.9595C151.03 99.0955 151.836 103.316 152.95 105.376C153.214 105.904 153.638 106.336 154.162 106.609C155.174 107.123 156.292 107.391 157.427 107.391C158.562 107.391 159.681 107.123 160.692 106.609C161.227 106.332 161.653 105.884 161.904 105.338C163.015 103.274 163.811 99.0786 163.549 94.9637Z" fill="#5230A1"/>
<path d="M161.739 92.4506C164.141 93.8363 164.154 96.0866 161.768 97.4723C159.382 98.858 155.501 98.858 153.102 97.4723C150.703 96.0866 150.686 93.8405 153.072 92.4506C155.458 91.0606 159.34 91.0648 161.739 92.4506Z" fill="#EBEBEB"/>
<path d="M160.789 93.0185C162.662 94.0991 162.675 95.8536 160.81 96.9342C158.946 98.0148 155.924 98.0148 154.051 96.9342C152.178 95.8536 152.165 94.0991 154.03 93.0185C155.894 91.9379 158.916 91.9209 160.789 93.0185Z" fill="#E0E0E0"/>
<g opacity="0.15">
<path d="M160.789 93.0185C162.662 94.0991 162.675 95.8536 160.81 96.9342C158.946 98.0148 155.924 98.0148 154.051 96.9342C152.178 95.8536 152.165 94.0991 154.03 93.0185C155.894 91.9379 158.916 91.9209 160.789 93.0185Z" fill="black"/>
</g>
<path d="M156.907 95.1374C157.399 95.548 157.982 95.836 158.608 95.9774C159.233 96.1189 159.883 96.1098 160.505 95.951C161.103 95.7697 161.646 95.4423 162.085 94.9984C162.525 94.5544 162.847 94.008 163.022 93.4083C162.296 93.064 161.632 92.603 161.056 92.0438C161.975 91.8165 162.939 91.8502 163.84 92.1413C164.09 91.7502 164.239 91.3038 164.276 90.8413C164.313 90.3787 164.236 89.9142 164.052 89.4884C163.006 89.0233 161.83 88.9408 160.729 89.2554C161.186 88.8581 161.72 88.5591 162.297 88.3768C162.875 88.1945 163.483 88.133 164.086 88.1959C164.172 86.4399 163.898 84.6847 163.28 83.0386C160.996 83.1572 158.78 84.1404 158.034 84.8481C157.999 85.6656 158.085 86.4838 158.288 87.2763C157.993 87.126 157.741 86.9034 157.555 86.6292C157.369 86.3551 157.255 86.0383 157.225 85.7084C155.797 86.0643 155.182 86.7763 154.962 87.3229C155.165 88.3393 155.631 89.2846 156.314 90.0648C154.97 89.641 154.428 88.162 154.428 88.162C153.106 91.2895 153.36 94.8322 156.907 95.1374Z" fill="#1F018A"/>
<path opacity="0.2" d="M156.907 95.1374C157.399 95.548 157.982 95.836 158.608 95.9774C159.233 96.1189 159.883 96.1098 160.505 95.951C161.103 95.7697 161.646 95.4423 162.085 94.9984C162.525 94.5544 162.847 94.008 163.022 93.4083C162.296 93.064 161.632 92.603 161.056 92.0438C161.975 91.8165 162.939 91.8502 163.84 92.1413C164.09 91.7502 164.239 91.3038 164.276 90.8413C164.313 90.3787 164.236 89.9142 164.052 89.4884C163.006 89.0233 161.83 88.9408 160.729 89.2554C161.186 88.8581 161.72 88.5591 162.297 88.3768C162.875 88.1945 163.483 88.133 164.086 88.1959C164.172 86.4399 163.898 84.6847 163.28 83.0386C160.996 83.1572 158.78 84.1404 158.034 84.8481C157.999 85.6656 158.085 86.4838 158.288 87.2763C157.993 87.126 157.741 86.9034 157.555 86.6292C157.369 86.3551 157.255 86.0383 157.225 85.7084C155.797 86.0643 155.182 86.7763 154.962 87.3229C155.165 88.3393 155.631 89.2846 156.314 90.0648C154.97 89.641 154.428 88.162 154.428 88.162C153.106 91.2895 153.36 94.8322 156.907 95.1374Z" fill="black"/>
<path opacity="0.3" d="M156.907 95.1374C157.399 95.548 157.982 95.836 158.608 95.9774C159.233 96.1189 159.883 96.1098 160.505 95.951C161.103 95.7697 161.646 95.4423 162.085 94.9984C162.525 94.5544 162.847 94.008 163.022 93.4083C162.296 93.064 161.632 92.603 161.056 92.0438C161.975 91.8165 162.939 91.8502 163.84 92.1413C164.09 91.7502 164.239 91.3038 164.276 90.8413C164.313 90.3787 164.236 89.9142 164.052 89.4884C163.006 89.0233 161.83 88.9408 160.729 89.2554C161.186 88.8581 161.72 88.5591 162.297 88.3768C162.875 88.1945 163.483 88.133 164.086 88.1959C164.172 86.4399 163.898 84.6847 163.28 83.0386C160.996 83.1572 158.78 84.1404 158.034 84.8481C157.999 85.6656 158.085 86.4838 158.288 87.2763C157.993 87.126 157.741 86.9034 157.555 86.6292C157.369 86.3551 157.255 86.0383 157.225 85.7084C155.797 86.0643 155.182 86.7763 154.962 87.3229C155.165 88.3393 155.631 89.2846 156.314 90.0648C154.97 89.641 154.428 88.162 154.428 88.162C153.106 91.2895 153.36 94.8322 156.907 95.1374Z" fill="#CCCACD"/>
<path d="M156.831 95.4765C156.814 95.4754 156.797 95.4709 156.782 95.4633C156.766 95.4557 156.752 95.4451 156.741 95.4321C156.729 95.4191 156.721 95.4039 156.715 95.3876C156.709 95.3712 156.707 95.3539 156.708 95.3366C156.929 92.4507 158.577 87.6875 162.514 83.7591C162.526 83.7468 162.541 83.7371 162.557 83.7305C162.573 83.7239 162.59 83.7205 162.607 83.7205C162.625 83.7205 162.642 83.7239 162.658 83.7305C162.674 83.7371 162.688 83.7468 162.7 83.7591C162.713 83.7713 162.722 83.7859 162.729 83.8019C162.736 83.8178 162.739 83.835 162.739 83.8523C162.739 83.8696 162.736 83.8868 162.729 83.9028C162.722 83.9188 162.713 83.9333 162.7 83.9455C158.819 87.8231 157.191 92.5143 156.975 95.3578C156.971 95.3923 156.954 95.4238 156.927 95.4459C156.9 95.4679 156.866 95.4789 156.831 95.4765Z" fill="#1F018A"/>
<path d="M157.908 96.68C157.45 97.0547 156.909 97.3156 156.331 97.4415C155.753 97.5674 155.153 97.5545 154.58 97.4041C154.008 97.2536 153.479 96.9698 153.037 96.5759C152.595 96.1819 152.253 95.689 152.039 95.1374C152.695 94.8384 153.295 94.43 153.814 93.9297C152.946 93.7214 152.037 93.7477 151.183 94.0059C150.923 93.676 150.752 93.2847 150.688 92.8698C150.623 92.4549 150.667 92.0303 150.814 91.637C151.809 91.2269 152.913 91.1613 153.95 91.4506C153.025 90.7309 151.863 90.3859 150.695 90.4844C150.491 88.9365 150.636 87.3626 151.119 85.8779C153.293 86.0093 155.45 86.9119 156.204 87.5518C156.287 88.2697 156.257 88.9961 156.115 89.7046C156.379 89.5795 156.603 89.3838 156.762 89.1392C156.922 88.8946 157.01 88.6107 157.018 88.3189C158.382 88.6494 158.997 89.2893 159.238 89.7724C159.11 90.6668 158.729 91.506 158.141 92.1922C158.523 92.0556 158.87 91.8345 159.156 91.5455C159.441 91.2564 159.658 90.9068 159.789 90.5225C161.226 93.294 161.205 96.4087 157.908 96.68Z" fill="#1F018A"/>
<path opacity="0.3" d="M157.908 96.68C157.45 97.0547 156.909 97.3156 156.331 97.4415C155.753 97.5674 155.153 97.5545 154.58 97.4041C154.008 97.2536 153.479 96.9698 153.037 96.5759C152.595 96.1819 152.253 95.689 152.039 95.1374C152.695 94.8384 153.295 94.43 153.814 93.9297C152.946 93.7214 152.037 93.7477 151.183 94.0059C150.923 93.676 150.752 93.2847 150.688 92.8698C150.623 92.4549 150.667 92.0303 150.814 91.637C151.809 91.2269 152.913 91.1613 153.95 91.4506C153.025 90.7309 151.863 90.3859 150.695 90.4844C150.491 88.9365 150.636 87.3626 151.119 85.8779C153.293 86.0093 155.45 86.9119 156.204 87.5518C156.287 88.2697 156.257 88.9961 156.115 89.7046C156.379 89.5795 156.603 89.3838 156.762 89.1392C156.922 88.8946 157.01 88.6107 157.018 88.3189C158.382 88.6494 158.997 89.2893 159.238 89.7724C159.11 90.6668 158.729 91.506 158.141 92.1922C158.523 92.0556 158.87 91.8345 159.156 91.5455C159.441 91.2564 159.658 90.9068 159.789 90.5225C161.226 93.294 161.205 96.4087 157.908 96.68Z" fill="#CCCACD"/>
<path d="M157.996 96.9936C157.965 96.9932 157.934 96.982 157.911 96.9619C157.887 96.9418 157.87 96.9141 157.864 96.8834C157.492 94.3704 155.665 90.2005 151.754 86.7128C151.741 86.7006 151.732 86.6861 151.725 86.6701C151.718 86.6541 151.715 86.6369 151.715 86.6196C151.715 86.6023 151.718 86.5851 151.725 86.5691C151.732 86.5531 151.741 86.5386 151.754 86.5264C151.766 86.5141 151.78 86.5043 151.796 86.4976C151.812 86.491 151.83 86.4875 151.847 86.4875C151.864 86.4875 151.881 86.491 151.897 86.4976C151.913 86.5043 151.928 86.5141 151.94 86.5264C155.894 90.0522 157.746 94.2899 158.127 96.8326C158.132 96.8673 158.123 96.9026 158.103 96.9311C158.082 96.9595 158.052 96.9789 158.017 96.9851L157.996 96.9936Z" fill="#CCCACD"/>
<path d="M95.9854 9.50946C95.8931 9.15073 95.7504 8.80689 95.5616 8.48816C95.1379 7.8525 94.4302 7.47958 92.7181 7.51348C92.479 7.52152 92.2427 7.56877 92.0189 7.65333L27.6814 44.2548C26.9748 44.6646 26.3872 45.2514 25.9763 45.9573C25.5654 46.6632 25.3454 47.4639 25.3379 48.2806V152.978C25.3379 154.847 26.4355 155.551 27.6559 155.631C28.1807 155.659 28.7063 155.592 29.207 155.432C29.2711 155.414 29.3335 155.39 29.3934 155.36L93.7691 118.695C94.4794 118.29 95.0699 117.704 95.4808 116.997C95.8916 116.29 96.1081 115.487 96.1083 114.669V9.9968C96.1033 9.82735 96.0613 9.66104 95.9854 9.50946Z" fill="#1F018A"/>
<path opacity="0.2" d="M95.9854 9.50946C95.8931 9.15073 95.7504 8.80689 95.5616 8.48816C95.1379 7.8525 94.4302 7.47958 92.7181 7.51348C92.479 7.52152 92.2427 7.56877 92.0189 7.65333L27.6814 44.2548C26.9748 44.6646 26.3872 45.2514 25.9763 45.9573C25.5654 46.6632 25.3454 47.4639 25.3379 48.2806V152.978C25.3379 154.847 26.4355 155.551 27.6559 155.631C28.1807 155.659 28.7063 155.592 29.207 155.432C29.2711 155.414 29.3335 155.39 29.3934 155.36L93.7691 118.695C94.4794 118.29 95.0699 117.704 95.4808 116.997C95.8916 116.29 96.1081 115.487 96.1083 114.669V9.9968C96.1033 9.82735 96.0613 9.66104 95.9854 9.50946Z" fill="black"/>
<path opacity="0.2" d="M25.821 46.2463C25.5068 46.8786 25.3415 47.5744 25.3379 48.2805V152.978C25.3379 154.847 26.4355 155.551 27.6559 155.631C27.322 155.123 27.1573 154.522 27.1856 153.915V49.2128C27.1882 48.5085 27.352 47.8141 27.6644 47.1829C27.7153 47.0769 27.7831 46.9795 27.8424 46.8778L26.0541 45.8438C25.9736 45.9794 25.8888 46.1065 25.821 46.2463Z" fill="black"/>
<path opacity="0.2" d="M92.7357 7.51343C92.4965 7.52147 92.2603 7.56871 92.0365 7.65327L27.682 44.2547C27.0144 44.6389 26.4546 45.1856 26.0547 45.8439L27.843 46.8779C28.2479 46.1727 28.8329 45.5877 29.5381 45.1828L93.8799 8.58558C94.1045 8.50422 94.3404 8.45847 94.5791 8.44997C94.9129 8.44184 95.247 8.45458 95.5792 8.48811C95.1766 7.83973 94.4477 7.47952 92.7357 7.51343Z" fill="#C99FD7"/>
<path d="M93.1715 12.7809L30.2451 49.0984V147.825L93.1715 111.508V12.7809Z" fill="#455A64"/>
<path d="M64.9398 129.463C64.332 129.843 63.8079 130.342 63.3992 130.931C62.9905 131.519 62.7058 132.185 62.5624 132.887C62.4056 134.108 63.215 134.582 64.3762 133.892C64.9827 133.511 65.506 133.011 65.9146 132.422C66.3231 131.834 66.6085 131.169 66.7535 130.467C66.9061 129.251 66.0967 128.798 64.9398 129.463Z" fill="#1F018A"/>
<g opacity="0.4">
<path d="M64.9398 129.463C64.332 129.843 63.8079 130.342 63.3992 130.931C62.9905 131.519 62.7058 132.185 62.5624 132.887C62.4056 134.108 63.215 134.582 64.3762 133.892C64.9827 133.511 65.506 133.011 65.9146 132.422C66.3231 131.834 66.6085 131.169 66.7535 130.467C66.9061 129.251 66.0967 128.798 64.9398 129.463Z" fill="black"/>
</g>
<path d="M99.2185 7.61094V4.40721C99.2144 4.25992 99.1782 4.1153 99.1125 3.98343C99.0389 3.66869 98.9175 3.36712 98.7523 3.08927C98.4006 2.52564 97.7565 2.19934 96.2478 2.24172C96.0379 2.24747 95.8303 2.28755 95.6333 2.36037L38.9492 34.563C38.328 34.9241 37.8115 35.4406 37.4504 36.0617C37.0893 36.6829 36.896 37.3873 36.8896 38.1058V41.7757L38.5127 42.7122L99.2185 7.61094Z" fill="#1F018A"/>
<path d="M38.5127 42.7122L36.8896 41.7757V133.527C36.8896 135.171 37.8559 135.794 38.928 135.862C39.391 135.888 39.8549 135.829 40.2968 135.688C40.3533 135.67 40.4085 135.647 40.4621 135.621L97.1589 103.329C97.7847 102.973 98.305 102.458 98.6668 101.836C99.0286 101.213 99.2189 100.506 99.2185 99.7863V7.61096L38.5127 42.7122Z" fill="#1F018A"/>
<path opacity="0.2" d="M37.3134 36.3176C37.0366 36.8732 36.8916 37.4851 36.8896 38.1059V133.527C36.8896 135.172 37.8559 135.795 38.928 135.862C38.6306 135.415 38.4822 134.886 38.5042 134.349V38.9322C38.5077 38.3117 38.6526 37.7 38.928 37.1439C38.9746 37.0507 39.034 36.9617 39.0848 36.8727L37.5084 35.9658C37.4369 36.0794 37.3718 36.1968 37.3134 36.3176Z" fill="black"/>
<path opacity="0.2" d="M96.2476 2.20364C96.0377 2.2094 95.8301 2.24948 95.6331 2.3223L38.949 34.5631C38.3608 34.9023 37.868 35.3848 37.5166 35.9658L39.093 36.8727C39.4507 36.2543 39.9653 35.7412 40.5847 35.3852L97.2562 3.14866C97.4541 3.07406 97.6634 3.03393 97.8749 3.03001C98.1677 3.02061 98.4609 3.03194 98.7521 3.06391C98.4004 2.50029 97.7562 2.17398 96.2476 2.20364Z" fill="#C99FD7"/>
<path opacity="0.05" d="M99.2185 7.61094V4.40721C99.2144 4.25992 99.1782 4.1153 99.1125 3.98343C99.0389 3.66869 98.9175 3.36712 98.7523 3.08927C98.4006 2.52564 97.7565 2.19934 96.2478 2.24172C96.0379 2.24747 95.8303 2.28755 95.6333 2.36037L38.9492 34.563C38.328 34.9241 37.8115 35.4406 37.4504 36.0617C37.0893 36.6829 36.896 37.3873 36.8896 38.1058V41.7757L38.5127 42.7122L99.2185 7.61094Z" fill="#C99FD7"/>
<path opacity="0.3" d="M38.5127 42.7122L36.8896 41.7757V133.527C36.8896 135.171 37.8559 135.794 38.928 135.862C39.391 135.888 39.8549 135.829 40.2968 135.688C40.3533 135.67 40.4085 135.647 40.4621 135.621L97.1589 103.329C97.7847 102.973 98.305 102.458 98.6668 101.836C99.0286 101.213 99.2189 100.506 99.2185 99.7863V7.61096L38.5127 42.7122Z" fill="#C99FD7"/>
<path d="M68.1976 41.0765L43.2754 55.4552V97.0657L68.1976 82.6828V41.0765Z" fill="#C99FD7"/>
<path d="M44.6621 56.2561L66.8171 43.4708V81.886L44.6621 94.6671V56.2561Z" fill="#455A64"/>
<path opacity="0.3" d="M44.6621 56.2561L66.8171 43.4708V81.886L44.6621 94.6671V56.2561Z" fill="#C99FD7"/>
<path d="M66.8171 81.9157L44.6621 94.7137V80.0045L51.1077 74.9404L59.4137 71.7875L61.469 71.2747C62.3802 71.0469 63.3298 71.0187 64.2529 71.1921C65.1759 71.3654 66.0506 71.7362 66.8171 72.2791V81.9157Z" fill="#E0E0E0"/>
<path d="M49.6745 63.7782C49.0304 61.6212 49.1702 59.1463 50.4585 57.2987C51.3084 56.12 52.5012 55.2321 53.8741 54.756C55.2364 54.2941 56.6768 54.1069 58.1119 54.2051C59.2499 54.2268 60.3695 54.4973 61.3919 54.9976C62.0046 55.3242 62.5468 55.7686 62.9876 56.3051C63.4283 56.8416 63.7589 57.4597 63.9604 58.1242C64.162 58.7886 64.2305 59.4863 64.1621 60.1773C64.0936 60.8682 63.8896 61.5389 63.5616 62.1509C63.0032 63.0933 62.2747 63.9239 61.4131 64.6003C59.7598 66.0156 57.943 67.2277 56.0015 68.2109C55.5184 68.4567 55.0268 68.6897 54.5267 68.9059C54.1877 69.0542 53.5478 69.4695 53.1664 69.3932C52.785 69.3169 52.3867 68.6092 52.1578 68.3168C51.8273 67.893 51.5137 67.4693 51.2213 67.0201C50.5508 66.0204 50.0297 64.9283 49.6745 63.7782Z" fill="#263238"/>
<path d="M61.2488 81.8944C61.0881 81.2451 60.8668 80.6123 60.5878 80.0044L59.5283 80.2544C59.6088 80.8477 59.6512 81.4664 59.6724 82.0809C59.6724 82.5047 59.6385 84.0726 59.558 86.1025L61.9354 84.7337C61.7235 83.8014 61.4989 82.8479 61.2488 81.8944Z" fill="#1F018A"/>
<path opacity="0.2" d="M59.5537 80.479C59.5537 80.407 59.5537 80.3307 59.5283 80.2544L60.5878 80.0044L60.6513 80.1612C60.508 80.2994 60.3331 80.4006 60.1419 80.456C59.9506 80.5113 59.7487 80.5193 59.5537 80.479Z" fill="black"/>
<path d="M58.9593 77.4788L58.1118 76.9448L56.1709 78.0043C56.8355 78.5147 57.6296 78.8288 58.4635 78.9111L58.9593 77.4788Z" fill="#1F018A"/>
<path d="M60.248 77.2755L60.5023 76.7034L61.4812 77.3178C61.3766 77.6896 61.1534 78.017 60.8456 78.2501L60.248 77.2755Z" fill="#1F018A"/>
<path opacity="0.2" d="M58.9593 77.4788L58.1118 76.9448L56.1709 78.0043C56.8355 78.5147 57.6296 78.8288 58.4635 78.9111L58.9593 77.4788Z" fill="black"/>
<path opacity="0.2" d="M60.248 77.2755L60.5023 76.7034L61.4812 77.3178C61.3766 77.6896 61.1534 78.017 60.8456 78.2501L60.248 77.2755Z" fill="black"/>
<path d="M58.4766 78.9112C58.5586 78.4106 58.7218 77.9268 58.9597 77.4788L60.231 77.2754C60.4662 77.5768 60.6666 77.9037 60.8285 78.2501C60.8564 78.8461 60.7686 79.4418 60.57 80.0045C60.2426 80.1731 59.8788 80.259 59.5106 80.2545C59.0348 79.9249 58.6735 79.4554 58.4766 78.9112Z" fill="#1F018A"/>
<path d="M53.0352 67.5327V73.4147C54.2048 75.0293 59.1248 77.0761 59.413 77.0295C59.7689 76.9659 59.413 73.7961 59.413 73.5207V71.139C58.4552 70.995 57.5187 70.8254 56.6754 70.6475C55.8552 70.4774 55.0913 70.1026 54.4549 69.558C53.8184 69.0134 53.33 68.3167 53.0352 67.5327Z" fill="#9C5C5C"/>
<path d="M57.2731 72.0418C57.975 72.2264 58.6907 72.354 59.4131 72.4232V71.1519C58.4554 71.0078 57.5188 70.8383 56.6755 70.6603C55.9066 70.4988 55.1869 70.1572 54.5755 69.6636C53.9641 69.1701 53.4784 68.5386 53.1582 67.821C53.3133 68.8107 53.7553 69.733 54.4295 70.4739C55.2177 71.2446 56.2006 71.7866 57.2731 72.0418Z" fill="#803E3E"/>
<path d="M63.0873 58.269C62.1239 59.2014 60.8465 59.7395 59.5064 59.7777C58.2351 59.7777 57.0316 59.3751 55.8154 59.0403C55.7042 59.6316 55.4073 60.172 54.9678 60.5829C54.4822 60.9967 53.8851 61.2577 53.2515 61.3329C53.4295 62.4688 53.4295 63.6254 53.2515 64.7613C53.2358 64.8798 53.188 64.9917 53.1133 65.0851C53.0386 65.1784 52.9399 65.2496 52.8277 65.291C52.404 65.4097 52.1497 64.9901 51.9505 64.6511C51.7373 64.2543 51.4321 63.9142 51.0606 63.6595C50.8747 63.5375 50.6621 63.4618 50.4409 63.439C50.2197 63.4161 49.9962 63.4467 49.7893 63.5281C49.6241 63.6153 49.4787 63.7355 49.3621 63.8813C49.2454 64.0271 49.16 64.1954 49.1112 64.3756C49.0163 64.7294 48.999 65.0994 49.0604 65.4605C49.1332 66.0696 49.3771 66.6456 49.7638 67.1217C49.9575 67.3587 50.1977 67.5536 50.4695 67.6942C50.7414 67.8349 51.0392 67.9184 51.3445 67.9396C51.6418 67.9653 51.9405 67.9089 52.2079 67.7766C52.4754 67.6444 52.7015 67.4413 52.8616 67.1895L52.8913 67.2997C53.0928 68.1352 53.5263 68.8968 54.1419 69.4967C54.7574 70.0965 55.53 70.5101 56.3705 70.6899C57.1418 70.8509 57.9978 71.0035 58.8665 71.1391C59.2903 71.2027 59.7141 71.262 60.1379 71.3128C60.9265 71.4074 61.7214 71.1967 62.3596 70.7239C62.9979 70.2512 63.4311 69.5521 63.5704 68.7702C64.151 65.4181 64.3459 61.5533 63.0873 58.269Z" fill="#9C5C5C"/>
<path d="M60.5787 62.4603H59.8328C59.0827 61.9517 58.2182 61.637 57.3166 61.5446C56.4151 61.4521 55.5047 61.5848 54.667 61.9305V62.7188L54.8746 62.8289C54.9874 63.3373 55.0512 63.8552 55.0653 64.3757C55.0794 64.8872 55.2833 65.3752 55.6374 65.7445C56.087 66.0514 56.6294 66.1923 57.1715 66.1429C57.6039 66.1766 58.0383 66.1129 58.4428 65.9564C58.906 65.7064 59.2551 65.2875 59.4175 64.7868C59.604 64.2952 59.5701 64.0113 59.7989 63.4222C59.8306 63.3369 59.8889 63.264 59.9652 63.2144C60.0416 63.1648 60.1318 63.1411 60.2227 63.1468C60.3064 63.1499 60.3872 63.1777 60.4551 63.2267C60.523 63.2757 60.5748 63.3438 60.6041 63.4222C60.816 64.0113 60.7905 64.2952 60.9601 64.7868C61.1069 65.2768 61.432 65.6941 61.8712 65.9564C62.25 66.1145 62.6615 66.1784 63.0705 66.1429C63.582 66.1913 64.0935 66.0494 64.507 65.7445C64.8426 65.3665 65.032 64.8811 65.041 64.3757C65.053 63.8558 65.1126 63.338 65.219 62.8289L65.4139 62.7188V61.9305C64.6328 61.5846 63.7742 61.4514 62.925 61.5444C62.0758 61.6375 61.2663 61.9534 60.5787 62.4603ZM59.4557 62.884L59.426 63.1637C59.3575 63.6723 59.2309 64.1714 59.0488 64.6512C58.917 65.0494 58.6422 65.3846 58.2776 65.592C57.9855 65.7078 57.6716 65.7584 57.358 65.7403H57.1885C56.7422 65.7876 56.2933 65.6799 55.9171 65.4352C55.641 65.1368 55.4894 64.7441 55.4934 64.3376C55.4934 64.2062 55.4679 64.0706 55.4595 63.9138C55.434 63.5367 55.4595 62.7145 55.4891 62.117C55.9156 61.9989 56.3561 61.939 56.7986 61.939C57.7303 61.943 58.6422 62.2088 59.4302 62.7061C59.4684 62.7315 59.4557 62.8628 59.4557 62.8628V62.884ZM64.6766 63.935C64.6766 64.0706 64.6766 64.2062 64.6469 64.3588C64.6451 64.7642 64.4942 65.1549 64.2231 65.4564C63.8779 65.6991 63.456 65.8076 63.0365 65.7615H62.8798C62.5896 65.7777 62.2996 65.7269 62.0322 65.6131C61.684 65.3994 61.4274 65.0642 61.3118 64.6724C61.1409 64.1908 61.023 63.692 60.9601 63.1849L60.9304 62.9052C60.9304 62.9052 60.9304 62.7739 60.9601 62.7484C61.6867 62.2546 62.5436 61.9877 63.4222 61.9814C63.8369 61.9811 64.2494 62.041 64.6469 62.1594C64.6808 62.7145 64.6978 63.5367 64.6766 63.9138V63.935Z" fill="#37474F"/>
<path d="M54.6667 61.9307L50.4629 63.4435C50.7662 63.5012 51.0502 63.6338 51.2893 63.8292C51.3316 63.8673 54.6795 62.7189 54.6795 62.7189L54.6667 61.9307Z" fill="#37474F"/>
<path d="M60.1973 63.2104L62.3204 65.7785L60.3753 66.465L60.1973 63.2104Z" fill="#9C5C5C"/>
<path d="M60.1973 63.2104L62.3204 65.7785L60.3753 66.465L60.1973 63.2104Z" fill="#803E3E"/>
<path d="M57.2051 63.5324C57.204 63.6088 57.2181 63.6846 57.2466 63.7556C57.275 63.8265 57.3173 63.891 57.3709 63.9454C57.4245 63.9998 57.4885 64.043 57.5589 64.0725C57.6294 64.102 57.7051 64.1172 57.7815 64.1172C57.8622 64.1241 57.9434 64.1141 58.0201 64.088C58.0967 64.0618 58.1671 64.02 58.2268 63.9653C58.2864 63.9105 58.334 63.8439 58.3666 63.7698C58.3992 63.6956 58.416 63.6155 58.416 63.5345C58.416 63.4535 58.3992 63.3734 58.3666 63.2993C58.334 63.2251 58.2864 63.1585 58.2268 63.1038C58.1671 63.049 58.0967 63.0072 58.0201 62.981C57.9434 62.9549 57.8622 62.9449 57.7815 62.9518C57.6282 62.9529 57.4816 63.0146 57.3737 63.1234C57.2657 63.2321 57.2051 63.3791 57.2051 63.5324Z" fill="#263238"/>
<path d="M62.0958 63.3542C62.0946 63.4308 62.1087 63.5069 62.1371 63.578C62.1655 63.6492 62.2077 63.714 62.2613 63.7687C62.3149 63.8235 62.3788 63.8671 62.4493 63.8971C62.5198 63.927 62.5955 63.9427 62.6721 63.9433C62.8269 63.9433 62.9754 63.8824 63.0857 63.7738C63.1959 63.6651 63.2589 63.5175 63.2611 63.3627C63.2487 63.2167 63.1819 63.0808 63.074 62.9817C62.9661 62.8826 62.8249 62.8276 62.6785 62.8276C62.532 62.8276 62.3908 62.8826 62.2829 62.9817C62.175 63.0808 62.1082 63.2167 62.0958 63.3627V63.3542Z" fill="#263238"/>
<path d="M61.7744 60.8117L63.3339 60.9855C63.3058 60.8191 63.2287 60.6648 63.1125 60.5425C62.9962 60.4202 62.8461 60.3354 62.6813 60.2989C62.4974 60.2914 62.315 60.3354 62.1547 60.426C61.9945 60.5166 61.8627 60.6502 61.7744 60.8117Z" fill="#263238"/>
<path d="M58.3828 60.926H56.8105C56.8588 60.764 56.9544 60.6202 57.0851 60.5129C57.2157 60.4057 57.3754 60.34 57.5437 60.3242C57.7255 60.3373 57.9 60.4005 58.0481 60.5067C58.1962 60.6129 58.3121 60.758 58.3828 60.926Z" fill="#263238"/>
<path d="M58.1339 67.4946L60.3757 68.1854C60.2336 68.4491 60.0096 68.6596 59.7375 68.7849C59.4654 68.9103 59.1599 68.9438 58.867 68.8804C58.3161 68.7278 58.0661 68.0625 58.1339 67.4946Z" fill="#9C5C5C"/>
<path d="M58.1339 67.4946L60.3757 68.1854C60.2336 68.4491 60.0096 68.6596 59.7375 68.7849C59.4654 68.9103 59.1599 68.9438 58.867 68.8804C58.3161 68.7278 58.0661 68.0625 58.1339 67.4946Z" fill="#5E2828"/>
<path d="M59.5997 68.8338C59.3653 68.9212 59.1102 68.9374 58.8666 68.8805C58.6586 68.8026 58.4783 68.6649 58.3485 68.4846C58.2188 68.3043 58.1454 68.0896 58.1377 67.8676C58.4588 67.8104 58.7897 67.8788 59.0618 68.0586C59.3339 68.2384 59.5265 68.516 59.5997 68.8338Z" fill="#9C5C5C"/>
<path d="M59.5997 68.8338C59.3653 68.9212 59.1102 68.9374 58.8666 68.8805C58.6586 68.8026 58.4783 68.6649 58.3485 68.4846C58.2188 68.3043 58.1454 68.0896 58.1377 67.8676C58.4588 67.8104 58.7897 67.8788 59.0618 68.0586C59.3339 68.2384 59.5265 68.516 59.5997 68.8338Z" fill="#803E3E"/>
<path d="M59.4137 77.0296C57.3711 76.9957 57.0744 80.2969 55.2098 80.8436L50.4551 75.0591L51.9298 72.8682C52.2249 72.4314 52.6073 72.0606 53.0528 71.7791V72.5715C53.0584 72.8038 53.1232 73.0309 53.2412 73.2311C53.3591 73.4313 53.5262 73.5981 53.7266 73.7157L59.4137 77.0296Z" fill="#FAFAFA"/>
<path d="M59.4131 77.0295C60.5446 76.6777 62.2397 78.0931 62.2397 78.0931C61.6464 74.8131 59.8496 71.7874 59.4131 71.7874V77.0295Z" fill="#FAFAFA"/>
<path d="M57.769 35.6946C58.3835 35.3387 58.7649 35.4828 58.7691 36.0676C58.75 36.3854 58.6486 36.6928 58.4747 36.9595C58.3008 37.2263 58.0606 37.4432 57.7775 37.5889L57.3876 37.8135V38.4873L56.752 38.8518V36.2837L57.769 35.6946ZM57.7393 37.038C57.8526 36.9833 57.9487 36.8988 58.0174 36.7935C58.0861 36.6882 58.1248 36.5661 58.1292 36.4405C58.1292 36.2032 57.9979 36.1354 57.7351 36.2879L57.3834 36.4913V37.2414L57.7351 37.038" fill="#C99FD7"/>
<path d="M60.6549 35.809L61.1423 36.3387L60.4642 36.7286L60.0404 36.2794L59.6972 36.4785V37.1608L59.0615 37.5295V34.9572L60.0786 34.3512C60.6888 33.9994 61.0702 34.1435 61.0745 34.7283C61.0736 35.1281 60.9241 35.5133 60.6549 35.809ZM60.0616 35.7157C60.1749 35.66 60.2709 35.5746 60.3396 35.4686C60.4082 35.3627 60.4469 35.2401 60.4515 35.114C60.4515 34.8767 60.3201 34.8131 60.0574 34.9614L59.7057 35.1648V35.9191L60.0574 35.7157" fill="#C99FD7"/>
<path d="M62.5616 32.8723C63.2778 32.4485 63.8075 32.724 63.8118 33.491C63.7901 33.9094 63.6655 34.3159 63.4489 34.6745C63.2322 35.033 62.9304 35.3325 62.5701 35.5463C61.8582 35.9701 61.3285 35.6989 61.3242 34.9276C61.3472 34.5101 61.472 34.1045 61.6877 33.7463C61.9034 33.388 62.2034 33.088 62.5616 32.8723ZM62.5616 34.9446C62.7441 34.8278 62.8946 34.6676 62.9996 34.4782C63.1047 34.2888 63.161 34.0762 63.1634 33.8597C63.1634 33.4359 62.8964 33.2791 62.5574 33.4783C62.3796 33.5931 62.2325 33.7496 62.1291 33.9343C62.0257 34.119 61.969 34.3261 61.9641 34.5377C61.9641 34.9869 62.2311 35.1225 62.5701 34.9276" fill="#C99FD7"/>
<path d="M65.8928 31.0034L65.897 31.5628L64.774 32.2112L64.7782 32.7748L65.7656 32.2069V32.7706L64.7782 33.3384L64.7825 34.2199L64.1468 34.5843L64.1426 32.0162L65.8928 31.0034Z" fill="#C99FD7"/>
<path d="M66.8248 30.4652L66.8333 33.0333L66.1976 33.402L66.1934 30.8297L66.8248 30.4652Z" fill="#C99FD7"/>
<path d="M67.9049 29.8423L67.9133 31.834L68.977 31.2196L68.9813 31.7959L67.2819 32.7748L67.2734 30.2067L67.9049 29.8423Z" fill="#C99FD7"/>
<path d="M70.9781 28.0667V28.6303L69.8508 29.2786L69.8551 29.7109L70.8467 29.1388V29.6812L69.8551 30.2533V30.7237L71.0247 30.0542V30.6135L69.2321 31.6518L69.2236 29.0795L70.9781 28.0667Z" fill="#C99FD7"/>
<path d="M73.3596 26.6936C74.1012 26.2699 74.6055 26.469 74.6097 27.2573C74.5924 27.6704 74.4686 28.0721 74.2503 28.4233C74.032 28.7745 73.7266 29.0634 73.3638 29.2617L72.3086 29.8762V27.3081L73.3596 26.6936ZM73.3384 28.6981C73.5275 28.589 73.6853 28.433 73.7966 28.2453C73.9079 28.0575 73.969 27.8442 73.974 27.6259C73.974 27.2022 73.7155 27.0708 73.3341 27.2912L72.9358 27.52V28.9269L73.3341 28.6981" fill="#C99FD7"/>
<path d="M76.2503 25.0239L77.2462 27.0199L76.5893 27.4013L76.4113 27.003L75.4663 27.5496L75.2926 28.1514L74.6484 28.5243L75.6274 25.3841L76.2503 25.0239ZM75.6528 26.9097L76.2249 26.5792L75.9367 25.9223L75.6528 26.9097Z" fill="#C99FD7"/>
<path d="M80.5687 22.5321L81.5645 24.5281L80.9077 24.9095L80.7297 24.5111L79.7847 25.0578L79.6109 25.6596L78.9668 26.0282L79.9457 22.8923L80.5687 22.5321ZM79.9669 24.4137L80.5432 24.0831L80.2508 23.4263L79.9669 24.4137Z" fill="#C99FD7"/>
<path d="M79.0969 23.3798L79.1011 23.9561L78.4189 24.3502L78.4231 26.342L77.7917 26.7064L77.7832 24.7147L77.1009 25.1088L77.0967 24.5324L79.0969 23.3798Z" fill="#C99FD7"/>
<path d="M60.54 38.2711V40.0425L78.4615 29.6982V27.931L60.54 38.2711Z" fill="#1F018A"/>
<g opacity="0.6">
<path d="M60.54 38.2711V40.0425L78.4615 29.6982V27.931L60.54 38.2711Z" fill="#C99FD7"/>
</g>
<path d="M65.0195 38.8517V40.6188L75.4444 34.5673V32.8002L65.0195 38.8517Z" fill="#1F018A"/>
<g opacity="0.6">
<path d="M65.0195 38.8517V40.6188L75.4444 34.5673V32.8002L65.0195 38.8517Z" fill="#C99FD7"/>
</g>
<path d="M70.5117 50.2045V51.9716L95.0652 37.8176V36.0504L70.5117 50.2045Z" fill="#1F018A"/>
<path d="M70.5117 53.2347V55.0019L89.607 44.0007V42.2335L70.5117 53.2347Z" fill="#1F018A"/>
<path d="M70.5117 58.6081V60.3752L95.0652 46.2254V44.4583L70.5117 58.6081Z" fill="#1F018A"/>
<path d="M70.5117 61.6423V63.4094L95.0652 49.2723V47.5051L70.5117 61.6423Z" fill="#1F018A"/>
<path d="M70.5117 64.5706V66.3377L89.0307 55.701V53.9338L70.5117 64.5706Z" fill="#1F018A"/>
<path d="M70.5117 40.0509V43.0767L88.4332 32.7366V29.7108L70.5117 40.0509Z" fill="#1F018A"/>
<path d="M70.5117 44.6277V46.5304L82.4198 39.6907V37.788L70.5117 44.6277Z" fill="#1F018A"/>
<g opacity="0.6">
<path d="M70.5117 50.2045V51.9716L95.0652 37.8176V36.0504L70.5117 50.2045Z" fill="#C99FD7"/>
<path d="M70.5117 53.2346V55.0017L89.607 44.0005V42.2334L70.5117 53.2346Z" fill="#C99FD7"/>
<path d="M70.5117 58.6081V60.3752L95.0652 46.2254V44.4583L70.5117 58.6081Z" fill="#C99FD7"/>
<path d="M70.5117 61.6423V63.4094L95.0652 49.2723V47.5051L70.5117 61.6423Z" fill="#C99FD7"/>
<path d="M70.5117 64.5706V66.3377L89.0307 55.701V53.9338L70.5117 64.5706Z" fill="#C99FD7"/>
<path d="M70.5117 40.0509V43.0767L88.4332 32.7366V29.7108L70.5117 40.0509Z" fill="#C99FD7"/>
<path d="M70.5117 44.6277V46.5304L82.4198 39.6907V37.788L70.5117 44.6277Z" fill="#C99FD7"/>
</g>
<path d="M72.1985 68.2151L72.7536 69.1855L73.9911 68.677L73.1011 70.1984L73.313 71.4909L72.207 71.4612L71.1009 72.7707L71.3086 71.2324L70.4102 70.745L71.6476 69.8254L72.1985 68.2151Z" fill="#1F018A"/>
<path d="M77.5676 65.1172L78.1228 66.0876L79.3602 65.5791L78.466 67.1005L78.6822 68.393L77.5761 68.3633L76.47 69.6685L76.6777 68.1302L75.7793 67.6471L77.0125 66.7275L77.5676 65.1172Z" fill="#1F018A"/>
<path d="M82.9319 62.0151L83.4913 62.9856L84.7245 62.477L83.8345 63.9984L84.0507 65.2909L82.9446 65.2613L81.8343 66.5707L82.0462 65.0324L81.1436 64.5451L82.381 63.6255L82.9319 62.0151Z" fill="#1F018A"/>
<path d="M88.302 58.9175L88.8571 59.8879L90.0946 59.3794L89.2046 60.9008L89.4208 62.1933L88.3105 62.1636L87.2044 63.4731L87.4121 61.9348L86.5137 61.4474L87.7553 60.5278L88.302 58.9175Z" fill="#1F018A"/>
<path d="M93.6711 55.8196L94.2263 56.79L95.4637 56.2815L94.5738 57.8028L94.7899 59.0911L93.6796 59.0657L92.5736 60.3709L92.7812 58.8326L91.8828 58.3495L93.1202 57.4257L93.6711 55.8196Z" fill="#1F018A"/>
<path d="M72.1985 72.8977L72.7536 73.8681L73.9911 73.3554L73.1011 74.8767L73.313 76.1735L72.207 76.1438L71.1009 77.449L71.3086 75.915L70.4102 75.4276L71.6476 74.5081L72.1985 72.8977Z" fill="#1F018A"/>
<path d="M77.5676 69.7959L78.1228 70.7663L79.3602 70.2578L78.466 71.7792L78.6822 73.0759L77.5761 73.042L76.47 74.3515L76.6777 72.8132L75.7793 72.3258L77.0125 71.4062L77.5676 69.7959Z" fill="#1F018A"/>
<path d="M82.9319 66.698L83.4913 67.6684L84.7245 67.1599L83.8345 68.6813L84.0507 69.9738L82.9446 69.9441L81.8343 71.2493L82.0462 69.7153L81.1436 69.2279L82.381 68.3083L82.9319 66.698Z" fill="#1F018A"/>
<path d="M88.302 63.6001L88.8571 64.5705L90.0946 64.062L89.2046 65.5834L89.4208 66.8716L88.3105 66.8462L87.2044 68.1514L87.4121 66.6131L86.5137 66.1258L87.7553 65.2062L88.302 63.6001Z" fill="#1F018A"/>
<path d="M93.6711 60.498L94.2263 61.4685L95.4637 60.96L94.5738 62.4813L94.7899 63.7738L93.6796 63.7442L92.5736 65.0536L92.7812 63.5153L91.8828 63.028L93.1202 62.1084L93.6711 60.498Z" fill="#1F018A"/>
<path d="M72.1985 77.5762L72.7536 78.5466L73.9911 78.0381L73.1011 79.5594L73.313 80.852L72.207 80.8223L71.1009 82.1318L71.3086 80.5934L70.4102 80.1061L71.6476 79.1865L72.1985 77.5762Z" fill="#1F018A"/>
<path d="M77.5676 74.4785L78.1228 75.449L79.3602 74.9404L78.466 76.4618L78.6822 77.7543L77.5761 77.7246L76.47 79.0299L76.6777 77.4958L75.7793 77.0085L77.0125 76.0889L77.5676 74.4785Z" fill="#1F018A"/>
<path d="M82.9319 71.3806L83.4913 72.3511L84.7245 71.8425L83.8345 73.3639L84.0507 74.6522L82.9446 74.6267L81.8343 75.932L82.0462 74.3937L81.1436 73.9063L82.381 72.991L82.9319 71.3806Z" fill="#1F018A"/>
<path d="M88.302 68.2786L88.8571 69.249L90.0946 68.7405L89.2046 70.2618L89.4208 71.5543L88.3105 71.5247L87.2044 72.8341L87.4121 71.2958L86.5137 70.8085L87.7553 69.8889L88.302 68.2786Z" fill="#1F018A"/>
<path d="M93.6711 65.1807L94.2263 66.1511L95.4637 65.6426L94.5738 67.1639L94.7899 68.4564L93.6796 68.4268L92.5736 69.7362L92.7812 68.1979L91.8828 67.7106L93.1202 66.7868L93.6711 65.1807Z" fill="#1F018A"/>
<g opacity="0.8">
<path d="M72.1985 68.2151L72.7536 69.1855L73.9911 68.677L73.1011 70.1984L73.313 71.4909L72.207 71.4612L71.1009 72.7707L71.3086 71.2324L70.4102 70.745L71.6476 69.8254L72.1985 68.2151Z" fill="#C99FD7"/>
<path d="M77.5676 65.1172L78.1228 66.0876L79.3602 65.5791L78.466 67.1005L78.6822 68.393L77.5761 68.3633L76.47 69.6685L76.6777 68.1302L75.7793 67.6471L77.0125 66.7275L77.5676 65.1172Z" fill="#C99FD7"/>
<path d="M82.9319 62.0151L83.4913 62.9856L84.7245 62.477L83.8345 63.9984L84.0507 65.2909L82.9446 65.2613L81.8343 66.5707L82.0462 65.0324L81.1436 64.5451L82.381 63.6255L82.9319 62.0151Z" fill="#C99FD7"/>
</g>
<g opacity="0.8">
<path d="M72.1985 72.8977L72.7536 73.8681L73.9911 73.3554L73.1011 74.8767L73.313 76.1735L72.207 76.1438L71.1009 77.449L71.3086 75.915L70.4102 75.4276L71.6476 74.5081L72.1985 72.8977Z" fill="#C99FD7"/>
<path d="M77.5676 69.7957L78.1228 70.7661L79.3602 70.2576L78.466 71.7789L78.6822 73.0757L77.5761 73.0418L76.47 74.3512L76.6777 72.8129L75.7793 72.3256L77.0125 71.406L77.5676 69.7957Z" fill="#C99FD7"/>
<path d="M82.9319 66.6978L83.4913 67.6682L84.7245 67.1597L83.8345 68.681L84.0507 69.9735L82.9446 69.9439L81.8343 71.2491L82.0462 69.715L81.1436 69.2277L82.381 68.3081L82.9319 66.6978Z" fill="#C99FD7"/>
<path d="M88.302 63.6001L88.8571 64.5705L90.0946 64.062L89.2046 65.5834L89.4208 66.8716L88.3105 66.8462L87.2044 68.1514L87.4121 66.6131L86.5137 66.1258L87.7553 65.2062L88.302 63.6001Z" fill="#C99FD7"/>
</g>
<g opacity="0.8">
<path d="M72.1985 77.5762L72.7536 78.5466L73.9911 78.0381L73.1011 79.5594L73.313 80.852L72.207 80.8223L71.1009 82.1318L71.3086 80.5934L70.4102 80.1061L71.6476 79.1865L72.1985 77.5762Z" fill="#C99FD7"/>
<path d="M77.5676 74.4785L78.1228 75.449L79.3602 74.9404L78.466 76.4618L78.6822 77.7543L77.5761 77.7246L76.47 79.0299L76.6777 77.4958L75.7793 77.0085L77.0125 76.0889L77.5676 74.4785Z" fill="#C99FD7"/>
<path d="M82.9319 71.3806L83.4913 72.3511L84.7245 71.8425L83.8345 73.3639L84.0507 74.6522L82.9446 74.6267L81.8343 75.932L82.0462 74.3937L81.1436 73.9063L82.381 72.991L82.9319 71.3806Z" fill="#C99FD7"/>
</g>
<path d="M49.6242 97.1589L43.293 100.833V108.16L48.5224 105.134L49.6242 102.859V97.1589Z" fill="#1F018A"/>
<path opacity="0.1" d="M49.6242 97.1589L43.293 100.833V108.16L48.5224 105.134L49.6242 102.859V97.1589Z" fill="black"/>
<path d="M48.5225 105.134L49.6243 102.859L48.5225 103.494V105.134Z" fill="#1F018A"/>
<path opacity="0.3" d="M48.5225 105.134L49.6243 102.859L48.5225 103.494V105.134Z" fill="black"/>
<path d="M50.917 96.4215V97.9683L68.1985 88.0011V86.4543L50.917 96.4215Z" fill="#1F018A"/>
<path d="M50.917 99.0743V100.621L68.1985 90.6666V89.1199L50.917 99.0743Z" fill="#1F018A"/>
<path d="M50.917 101.634V103.181L62.9225 96.2899V94.7432L50.917 101.634Z" fill="#1F018A"/>
<g opacity="0.6">
<path d="M50.916 96.4215V97.9683L68.1976 88.0011V86.4543L50.916 96.4215Z" fill="#C99FD7"/>
<path d="M50.916 99.0743V100.621L68.1976 90.6666V89.1199L50.916 99.0743Z" fill="#C99FD7"/>
<path d="M50.916 101.634V103.181L62.9216 96.2902V94.7434L50.916 101.634Z" fill="#C99FD7"/>
</g>
<path d="M49.6242 106.995L43.293 110.665V117.996L48.5224 114.966L49.6242 112.69V106.995Z" fill="#1F018A"/>
<path opacity="0.1" d="M49.6242 106.995L43.293 110.665V117.996L48.5224 114.966L49.6242 112.69V106.995Z" fill="black"/>
<path d="M48.5225 114.966L49.6243 112.69L48.5225 113.33V114.966Z" fill="#1F018A"/>
<path opacity="0.3" d="M48.5225 114.966L49.6243 112.69L48.5225 113.33V114.966Z" fill="black"/>
<path d="M50.917 106.257V107.804L68.3892 97.7309V96.1841L50.917 106.257Z" fill="#1F018A"/>
<path d="M50.917 108.91V110.453L68.3892 100.397V98.8499L50.917 108.91Z" fill="#1F018A"/>
<path d="M50.917 111.47V113.016L54.7013 110.885V109.338L50.917 111.47Z" fill="#1F018A"/>
<g opacity="0.6">
<path d="M50.916 106.257V107.804L68.3883 97.7311V96.1843L50.916 106.257Z" fill="#C99FD7"/>
<path d="M50.916 108.91V110.453L68.3883 100.397V98.8499L50.916 108.91Z" fill="#C99FD7"/>
<path d="M50.916 111.47V113.017L54.7003 110.885V109.338L50.916 111.47Z" fill="#C99FD7"/>
</g>
<path d="M49.6242 116.831L43.293 120.5V127.828L48.5224 124.802L49.6242 122.526V116.831Z" fill="#1F018A"/>
<path opacity="0.1" d="M49.6242 116.831L43.293 120.5V127.828L48.5224 124.802L49.6242 122.526V116.831Z" fill="black"/>
<path d="M48.5225 124.802L49.6243 122.526L48.5225 123.162V124.802Z" fill="#1F018A"/>
<path opacity="0.3" d="M48.5225 124.802L49.6243 122.526L48.5225 123.162V124.802Z" fill="black"/>
<path d="M50.917 116.093V117.636L68.5545 107.397V105.851L50.917 116.093Z" fill="#1F018A"/>
<path d="M50.917 118.742V120.289L68.5545 110.063V108.516L50.917 118.742Z" fill="#1F018A"/>
<path d="M50.917 121.301V122.848L68.5545 112.644V111.097L50.917 121.301Z" fill="#1F018A"/>
<g opacity="0.6">
<path d="M50.916 116.093V117.636L68.5535 107.397V105.851L50.916 116.093Z" fill="#C99FD7"/>
<path d="M50.916 118.742V120.289L68.5535 110.063V108.516L50.916 118.742Z" fill="#C99FD7"/>
<path d="M50.916 121.301V122.848L68.5535 112.644V111.097L50.916 121.301Z" fill="#C99FD7"/>
</g>
<path d="M94.7725 99.7992L71.2318 113.36C71.162 113.401 71.0824 113.423 71.0013 113.424C70.9201 113.424 70.8403 113.403 70.77 113.363C70.6998 113.322 70.6415 113.264 70.6013 113.193C70.561 113.123 70.5402 113.043 70.541 112.962V86.4121C70.5405 86.1691 70.6041 85.9303 70.7254 85.7197C70.8467 85.5092 71.0214 85.3343 71.2318 85.2128L94.7725 71.6266C94.8428 71.5865 94.9225 71.5655 95.0035 71.5659C95.0845 71.5663 95.164 71.588 95.2339 71.6287C95.3039 71.6695 95.3619 71.728 95.4022 71.7983C95.4424 71.8686 95.4635 71.9482 95.4632 72.0292V98.5872C95.466 98.8323 95.4035 99.0738 95.2821 99.2867C95.1607 99.4997 94.9848 99.6766 94.7725 99.7992Z" fill="#1F018A"/>
<path d="M78.8947 83.0515L72.5635 86.7256V94.0527L77.7971 91.027L78.8947 88.7513V83.0515Z" fill="#1F018A"/>
<path opacity="0.3" d="M78.8947 83.0515L72.5635 86.7256V94.0527L77.7971 91.027L78.8947 88.7513V83.0515Z" fill="black"/>
<path d="M77.7969 91.0269L78.8945 88.7512L77.7969 89.3869V91.0269Z" fill="#1F018A"/>
<path opacity="0.5" d="M77.7969 91.0269L78.8945 88.7512L77.7969 89.3869V91.0269Z" fill="black"/>
<path d="M80.3896 83.2083V84.2381L94.0861 76.3347V75.3049L80.3896 83.2083Z" fill="#1F018A"/>
<path d="M80.3896 86.0009L94.0861 78.1059V77.0762L80.3896 84.9711V86.0009Z" fill="#1F018A"/>
<path d="M80.3896 87.8191L94.0861 79.9157V78.8901L80.3896 86.7935V87.8191Z" fill="#1F018A"/>
<path d="M87.865 84.238L80.3896 88.5563V89.5861L87.865 85.2636V84.238Z" fill="#1F018A"/>
<path d="M72.5635 96.663L94.087 84.2887V83.2632L72.5635 95.6332V96.663Z" fill="#1F018A"/>
<path d="M88.5313 88.2341L72.5635 97.4004V98.4259L88.5313 89.2639V88.2341Z" fill="#1F018A"/>
<path d="M72.5635 104.99L94.087 92.6161V91.5906L72.5635 103.961V104.99Z" fill="#1F018A"/>
<path d="M84.5224 98.8625L72.5635 105.723V106.753L84.5224 99.8881V98.8625Z" fill="#1F018A"/>
<path d="M72.5635 108.571L94.087 96.2012V95.1714L72.5635 107.546V108.571Z" fill="#1F018A"/>
<path d="M72.5635 110.338L83.3274 104.155V103.125L72.5635 109.308V110.338Z" fill="#1F018A"/>
<path d="M84.8105 103.299L88.1838 101.363V100.333L84.8105 102.274V103.299Z" fill="#1F018A"/>
<path d="M72.5635 100.248L94.087 87.8739V86.8484L72.5635 99.2184V100.248Z" fill="#1F018A"/>
<path d="M80.0728 96.6672L72.5635 100.981V102.011L80.0728 97.697V96.6672Z" fill="#1F018A"/>
<g opacity="0.3">
<path d="M80.3896 83.2083V84.2381L94.0861 76.3347V75.3049L80.3896 83.2083Z" fill="#C99FD7"/>
<path d="M80.3896 86.0009L94.0861 78.1059V77.0762L80.3896 84.9711V86.0009Z" fill="#C99FD7"/>
<path d="M80.3896 87.8191L94.0861 79.9157V78.8901L80.3896 86.7935V87.8191Z" fill="#C99FD7"/>
<path d="M87.865 84.238L80.3896 88.5563V89.5861L87.865 85.2636V84.238Z" fill="#C99FD7"/>
<path d="M72.5635 96.6632L94.087 84.289V83.2634L72.5635 95.6334V96.6632Z" fill="#C99FD7"/>
<path d="M88.5313 88.2341L72.5635 97.4004V98.4259L88.5313 89.2639V88.2341Z" fill="#C99FD7"/>
<path d="M72.5635 104.99L94.087 92.6161V91.5906L72.5635 103.961V104.99Z" fill="#C99FD7"/>
<path d="M84.5224 98.8625L72.5635 105.723V106.753L84.5224 99.8881V98.8625Z" fill="#C99FD7"/>
<path d="M72.5635 108.571L94.087 96.2012V95.1714L72.5635 107.546V108.571Z" fill="#C99FD7"/>
<path d="M72.5635 110.338L83.3274 104.156V103.126L72.5635 109.309V110.338Z" fill="#C99FD7"/>
<path d="M84.8105 103.299L88.1838 101.363V100.333L84.8105 102.274V103.299Z" fill="#C99FD7"/>
<path d="M72.5635 100.248L94.087 87.8742V86.8486L72.5635 99.2186V100.248Z" fill="#C99FD7"/>
<path d="M80.0728 96.6672L72.5635 100.981V102.011L80.0728 97.697V96.6672Z" fill="#C99FD7"/>
</g>
<path d="M102.269 163.861C102.748 164.321 103.318 164.677 103.941 164.907C104.565 165.137 105.229 165.235 105.892 165.196C107.219 165.11 108.519 164.783 109.728 164.23C110.952 163.726 112.491 162.314 113.817 162.34C115.119 162.337 116.419 162.255 117.711 162.094C117.756 160.327 117.571 158.562 117.161 156.843L110.973 156.678C109.304 158.967 106.053 160.869 103.595 161.586C103.217 161.692 102.875 161.9 102.607 162.187C102.338 162.474 102.152 162.829 102.07 163.213C102.068 163.225 102.068 163.238 102.07 163.251C102.11 163.462 102.177 163.667 102.269 163.861Z" fill="#37474F"/>
<path d="M113.817 162.34C112.49 162.314 110.952 163.726 109.727 164.23C108.518 164.782 107.219 165.11 105.892 165.196C105.229 165.235 104.565 165.137 103.941 164.907C103.318 164.677 102.748 164.321 102.269 163.861C102.171 163.662 102.1 163.451 102.057 163.234C102.055 163.221 102.055 163.208 102.057 163.196C101.998 163.467 101.998 163.747 102.057 164.018C102.1 164.237 102.171 164.449 102.269 164.649C102.749 165.108 103.319 165.463 103.942 165.692C104.565 165.921 105.229 166.019 105.892 165.98C107.219 165.894 108.518 165.566 109.727 165.014C110.952 164.51 112.49 163.098 113.817 163.124C115.092 163.137 116.366 163.064 117.631 162.903C117.665 162.628 117.682 162.353 117.694 162.056C116.409 162.229 115.114 162.324 113.817 162.34Z" fill="#263238"/>
<path d="M132.878 167.311C132.884 167.987 132.817 168.662 132.679 169.324C132.469 170.503 131.813 171.556 130.848 172.265C129.955 172.772 128.946 173.039 127.92 173.04C127.019 173.137 126.108 173.043 125.246 172.765C124.594 172.532 124.04 172.083 123.678 171.493C123.678 171.493 123.678 171.519 123.678 171.527C123.803 171.963 124.033 172.361 124.347 172.688C124.66 173.015 125.049 173.261 125.479 173.405C126.342 173.683 127.255 173.777 128.157 173.68C129.183 173.68 130.19 173.413 131.081 172.905C132.049 172.198 132.707 171.147 132.92 169.968C133.059 169.306 133.125 168.631 133.119 167.955C133.123 167.493 133.221 167.036 133.407 166.613C133.593 166.19 133.863 165.809 134.2 165.493C134.365 165.339 134.522 165.176 134.67 165.005C134.775 164.886 134.854 164.747 134.904 164.596C134.953 164.445 134.972 164.286 134.959 164.128C134.959 164.007 134.946 163.884 134.92 163.76C134.675 164.048 134.103 164.726 133.959 164.861C133.623 165.176 133.354 165.555 133.168 165.976C132.982 166.397 132.884 166.851 132.878 167.311Z" fill="#263238"/>
<path d="M127.801 160.293C128.019 161.675 127.84 163.09 127.284 164.374C126.726 165.65 125.999 166.846 125.123 167.929C124.695 168.442 124.316 168.994 123.992 169.578C123.675 170.159 123.562 170.828 123.67 171.481C124.032 172.07 124.585 172.519 125.237 172.752C126.1 173.03 127.011 173.124 127.912 173.027C128.94 173.032 129.952 172.769 130.848 172.265C131.816 171.558 132.475 170.507 132.687 169.328C132.826 168.666 132.893 167.991 132.887 167.315C132.891 166.853 132.988 166.396 133.174 165.973C133.36 165.55 133.63 165.169 133.967 164.853C134.111 164.717 134.683 164.039 134.929 163.751C134.794 162.744 134.455 161.775 133.933 160.903L127.801 160.293Z" fill="#37474F"/>
<path d="M110.147 102.418C110.147 102.418 108.503 122.971 108.647 128.692C108.791 134.413 109.392 157 109.392 157C112.753 158.873 117.609 157.479 117.609 157.479C118.004 139.443 119.788 135.566 118.576 128.963C119.423 124.064 120.614 112.644 120.614 112.644C122.288 126.378 123.504 133.455 123.504 133.455L127.505 160.95C130.789 162.581 134.933 160.95 134.933 160.95C134.933 145.27 135.289 138.646 133.573 128.319C133.559 119.182 132.993 110.054 131.878 100.986L110.147 102.418Z" fill="#455A64"/>
<path opacity="0.2" d="M114.118 107.728C115.267 110.402 118.86 110.402 118.86 110.402L119.504 113.449L119.263 124.272C119.954 119.009 120.615 112.64 120.615 112.64L120.17 109.385C118.026 109.507 115.901 108.925 114.118 107.728Z" fill="black"/>
<path d="M115.631 70.5586C110.016 70.5586 109.096 72.741 107.676 76.3601C106.257 79.9791 105.159 86.4417 105.159 86.4417L110.588 85.2721L112.707 73.0462L115.631 70.5586Z" fill="#455A64"/>
<path d="M110.588 84.3864C109.169 84.2895 107.748 84.5472 106.452 85.1364C105.939 85.3414 105.484 85.6687 105.126 86.0899C104.952 86.304 104.839 86.561 104.798 86.834C104.758 87.107 104.792 87.3857 104.897 87.641C104.38 88.5902 104.427 90.0014 104.533 91.1625C104.543 91.3867 104.592 91.6074 104.677 91.8151C104.721 91.917 104.787 92.0078 104.871 92.0811C104.954 92.1543 105.053 92.2082 105.16 92.2389L110.588 87.357V84.3864Z" fill="#37474F"/>
<path opacity="0.2" d="M108.728 85.5899C106.8 85.4374 105.406 86.5477 104.778 87.1155C104.78 87.2972 104.82 87.4763 104.897 87.641C105.342 86.9672 107.236 85.7425 108.728 85.5899Z" fill="black"/>
<path opacity="0.2" d="M106.621 87.4292C107.827 86.7346 109.196 86.3747 110.588 86.3867V85.9375C109.134 85.9664 107.734 86.4929 106.621 87.4292Z" fill="black"/>
<path d="M131.191 70.9146L128.555 70.6349L115.63 70.5459C111.1 70.5459 110.519 76.1185 110.261 81.0513C110.002 85.984 110.833 95.9046 109.71 102.532L115.105 106.016L116.618 104.384L119.033 106.635C127.233 106.635 132.064 102.083 132.679 101.299L131.191 70.9146Z" fill="#1F018A"/>
<path opacity="0.2" d="M131.191 70.9146L128.555 70.6349L115.63 70.5459C111.1 70.5459 110.519 76.1185 110.261 81.0513C110.002 85.984 110.833 95.9046 109.71 102.532L115.105 106.016L116.618 104.384L119.033 106.635C127.233 106.635 132.064 102.083 132.679 101.299L131.191 70.9146Z" fill="#C99FD7"/>
<path d="M117.741 72.2537C116.533 76.1016 117.292 81.4665 117.741 83.8778C120.805 79.6697 123.674 75.4447 124.568 73.792L120.296 71.7197L117.741 72.2537Z" fill="#455A64"/>
<path opacity="0.2" d="M117.335 84.1743L115.945 86.0389C115.564 86.5498 115.377 87.1787 115.415 87.8145L116.347 103.32L114.745 87.9332C114.7 87.5006 114.759 87.0634 114.919 86.6589C115.08 86.2544 115.335 85.8948 115.665 85.6109L117.335 84.1743Z" fill="black"/>
<path d="M131.192 70.9146L132.946 71.1942C133.982 71.3608 134.942 71.8389 135.699 72.565C136.456 73.291 136.974 74.2305 137.184 75.2582C138.165 80.1533 138.548 85.1495 138.324 90.137L130.323 86.4501C129.467 80.1952 127.823 75.0294 131.192 70.9146Z" fill="#455A64"/>
<path d="M130.043 86.6916C130.043 86.6169 130.058 86.5429 130.087 86.4739C130.116 86.405 130.158 86.3425 130.211 86.29C130.264 86.2376 130.327 86.1963 130.397 86.1684C130.466 86.1406 130.54 86.1269 130.615 86.128C134.238 86.1746 137.756 87.8994 138.718 89.942C138.937 90.5762 138.937 91.2656 138.718 91.8998C139.362 92.7474 139.027 93.1711 138.688 93.7771C138.349 94.3831 138.857 95.7562 137.764 95.6926L138.018 95.1714C135.853 90.9717 130.39 89.2385 130.39 89.2385L130.361 88.5435C130.357 88.4805 130.341 88.4188 130.314 88.362C130.286 88.3052 130.247 88.2546 130.2 88.213C130.15 88.1679 130.111 88.1129 130.084 88.0516C130.057 87.9903 130.043 87.924 130.043 87.857V86.6916Z" fill="#37474F"/>
<path opacity="0.2" d="M134.142 88.4207C135.918 89.1989 137.486 90.3851 138.718 91.8829C138.788 91.6691 138.838 91.4492 138.867 91.226C138.265 90.476 136.964 89.0945 134.142 88.4207Z" fill="black"/>
<path opacity="0.2" d="M130.064 87.9885C130.09 88.071 130.137 88.1454 130.2 88.2046C130.248 88.2463 130.286 88.2969 130.314 88.3537C130.342 88.4105 130.358 88.4722 130.361 88.5352V88.5903C132.894 88.9812 135.236 90.1687 137.048 91.9805C135.374 89.5523 131.696 88.3064 130.064 87.9885Z" fill="black"/>
<path d="M130.39 89.2302L130.36 88.5903C124.224 86.4715 113.409 86.8952 110.24 86.8529C107.909 86.8529 104.65 90.5778 104.892 92.0526C105.133 93.5273 105.159 94.7944 108.006 95.019C110.019 95.1461 113.897 94.3749 113.897 94.3749C124.589 97.6591 134.903 97.0786 136.501 96.7862C137.264 96.676 137.772 95.6589 137.772 95.6589L138.027 95.1377C135.853 90.955 130.39 89.2302 130.39 89.2302Z" fill="#9C5C5C"/>
<path d="M134.451 92.273C134.288 91.74 134.031 91.2405 133.692 90.7982C132.653 90.1544 131.546 89.6284 130.391 89.2303L130.361 88.5904L129.963 88.459L130.043 89.2514C128.297 89.3701 118.063 93.557 113.897 94.3918C114.715 94.6419 115.525 94.8665 116.33 95.0741C120.991 93.4595 127.399 90.2812 130.361 89.8235C132.425 90.3533 133.484 90.8999 134.451 92.273Z" fill="#803E3E"/>
<path d="M129.336 59.4133C129.976 57.269 129.836 54.8026 128.552 52.9677C127.707 51.8026 126.523 50.9266 125.162 50.459C123.8 49.9954 122.359 49.8095 120.924 49.9123C119.792 49.9337 118.679 50.2012 117.661 50.6963C117.051 51.0216 116.512 51.4639 116.073 51.998C115.635 52.532 115.306 53.1473 115.106 53.8086C114.905 54.4699 114.837 55.1642 114.906 55.8518C114.974 56.5394 115.177 57.2067 115.504 57.8157C116.053 58.7523 116.771 59.5786 117.623 60.2524C119.268 61.6596 121.074 62.866 123.005 63.846C123.488 64.0918 123.979 64.3206 124.475 64.5368C124.81 64.6851 125.45 65.1004 125.827 65.0241C126.204 64.9478 126.602 64.2401 126.831 63.952C127.158 63.5282 127.475 63.1044 127.764 62.6806C128.444 61.674 128.974 60.5732 129.336 59.4133Z" fill="#263238"/>
<path d="M119.525 75.7964L118.474 75.5464C117.966 76.8917 117.541 78.2674 117.203 79.6655C117.314 81.0868 117.499 82.5013 117.758 83.9032C118.36 83.0769 118.953 82.2547 119.525 81.4453C119.335 79.5672 119.335 77.6746 119.525 75.7964Z" fill="#1F018A"/>
<path opacity="0.2" d="M119.504 76.021C119.504 75.9447 119.504 75.8685 119.504 75.7964L118.453 75.5464C118.453 75.5464 118.427 75.6057 118.394 75.7032C118.563 75.8572 118.768 75.9651 118.991 76.0168C119.16 76.0505 119.334 76.0519 119.504 76.021Z" fill="black"/>
<path d="M120.094 73.0379L120.941 72.5039L122.874 73.5549C122.214 74.0651 121.424 74.3793 120.594 74.4618L120.094 73.0379Z" fill="#1F018A"/>
<path d="M118.813 72.83L118.559 72.2537L117.584 72.8639C117.689 73.2341 117.913 73.5599 118.22 73.792L118.813 72.83Z" fill="#1F018A"/>
<path opacity="0.2" d="M120.094 73.0379L120.941 72.5039L122.874 73.5549C122.214 74.0651 121.424 74.3793 120.594 74.4618L120.094 73.0379Z" fill="black"/>
<path opacity="0.2" d="M118.813 72.83L118.559 72.2537L117.584 72.8639C117.689 73.2341 117.913 73.5599 118.22 73.792L118.813 72.83Z" fill="black"/>
<path d="M120.576 74.4616C120.493 73.964 120.33 73.4831 120.093 73.0377L118.821 72.8301C118.587 73.1298 118.388 73.4554 118.228 73.8005C118.199 74.3935 118.286 74.9863 118.482 75.5465C118.807 75.7147 119.168 75.8006 119.533 75.7965C120.012 75.4714 120.376 75.0046 120.576 74.4616Z" fill="#1F018A"/>
<path d="M125.987 63.1384V68.9908C124.822 70.5969 119.928 72.6352 119.631 72.5844C119.275 72.525 119.631 69.3722 119.631 69.0967V66.7448C120.58 66.6007 121.517 66.4354 122.356 66.2574C123.176 66.0875 123.939 65.7122 124.574 65.1666C125.209 64.6211 125.696 63.9232 125.987 63.1384Z" fill="#9C5C5C"/>
<path d="M121.775 67.6261C121.08 67.8062 120.371 67.9323 119.656 68.0032V66.7319C120.606 66.5878 121.542 66.4225 122.381 66.2446C123.146 66.0844 123.862 65.7446 124.47 65.2531C125.078 64.7617 125.56 64.1326 125.877 63.418C125.722 64.4037 125.28 65.3219 124.606 66.0581C123.82 66.8256 122.842 67.3673 121.775 67.6261Z" fill="#803E3E"/>
<path d="M115.987 53.9211C116.946 54.8455 118.215 55.3802 119.546 55.4213C120.818 55.4213 122.013 55.0187 123.22 54.6882C123.334 55.2761 123.631 55.8131 124.068 56.2222C124.549 56.6302 125.138 56.8893 125.763 56.9681C125.587 58.0913 125.587 59.235 125.763 60.3583C125.778 60.4767 125.825 60.5886 125.9 60.6815C125.975 60.7743 126.074 60.8444 126.187 60.8838C126.611 61.0024 126.865 60.5871 127.06 60.2481C127.271 59.8532 127.575 59.5157 127.946 59.2649C128.13 59.1399 128.343 59.0624 128.565 59.0395C128.787 59.0166 129.011 59.0489 129.217 59.1336C129.379 59.2163 129.523 59.3316 129.639 59.4723C129.755 59.613 129.841 59.7761 129.891 59.9515C129.989 60.3045 130.008 60.6751 129.946 61.0363C129.869 61.6419 129.626 62.2142 129.242 62.689C129.049 62.9235 128.81 63.1162 128.539 63.2553C128.269 63.3945 127.973 63.4772 127.67 63.4985C127.374 63.5244 127.077 63.4685 126.811 63.337C126.545 63.2055 126.32 63.0033 126.161 62.7526L126.132 62.8628C126.09 63.0419 126.035 63.2176 125.967 63.3883C125.699 64.0989 125.257 64.7305 124.681 65.2246C124.104 65.7188 123.413 66.0594 122.67 66.2149C121.903 66.3759 121.051 66.5284 120.186 66.6386C119.762 66.7022 119.339 66.7658 118.915 66.8166C118.129 66.9107 117.337 66.6993 116.702 66.2262C116.067 65.753 115.638 65.0542 115.504 64.274C114.927 61.0321 114.745 57.1884 115.987 53.9211Z" fill="#9C5C5C"/>
<path d="M113.678 57.5656V58.3453L113.868 58.4555C113.975 58.9617 114.034 59.4766 114.046 59.9938C114.059 60.4972 114.248 60.9801 114.58 61.3583C114.991 61.6619 115.5 61.8024 116.008 61.7525C116.414 61.789 116.823 61.7265 117.199 61.5702C117.637 61.3097 117.961 60.8936 118.106 60.4048C118.28 59.9175 118.25 59.6336 118.462 59.0445C118.489 58.9649 118.54 58.8957 118.609 58.847C118.677 58.7983 118.759 58.7725 118.844 58.7733C118.934 58.7673 119.024 58.7904 119.1 58.8392C119.176 58.888 119.235 58.96 119.267 59.0445C119.492 59.6336 119.462 59.9175 119.644 60.4048C119.808 60.9026 120.155 61.3193 120.615 61.5702C121.02 61.7257 121.454 61.788 121.886 61.7525C122.425 61.8036 122.965 61.6641 123.412 61.3583C123.764 60.9901 123.967 60.5035 123.98 59.9938C123.994 59.4761 124.058 58.961 124.17 58.4555L124.378 58.3453V57.5656C123.546 57.2204 122.641 57.0873 121.744 57.1783C120.848 57.2693 119.988 57.5814 119.242 58.0868H118.496C117.811 57.5816 117.004 57.2672 116.157 57.1756C115.311 57.0841 114.455 57.2186 113.678 57.5656ZM119.611 58.3326C120.397 57.8392 121.305 57.575 122.234 57.5698C122.673 57.5701 123.111 57.6299 123.535 57.7478C123.569 58.3411 123.59 59.1632 123.564 59.5361C123.564 59.6717 123.564 59.8073 123.535 59.9387C123.534 60.3418 123.383 60.7302 123.111 61.0278C122.734 61.2715 122.286 61.3792 121.84 61.3329H121.67C121.359 61.351 121.048 61.3004 120.759 61.1846C120.394 60.9802 120.118 60.6459 119.988 60.2481C119.807 59.7709 119.682 59.2747 119.615 58.7691L119.585 58.4894C119.585 58.4894 119.589 58.358 119.632 58.3326H119.611ZM114.411 57.7478C114.807 57.6301 115.218 57.5701 115.631 57.5698C116.505 57.5766 117.358 57.842 118.081 58.3326C118.123 58.358 118.11 58.4894 118.11 58.4894L118.085 58.7691C118.022 59.2733 117.904 59.7692 117.733 60.2481C117.617 60.6387 117.361 60.9725 117.013 61.1846C116.746 61.2997 116.456 61.3505 116.165 61.3329H116.017C115.599 61.3764 115.179 61.2681 114.835 61.0278C114.566 60.7281 114.416 60.3411 114.411 59.9387C114.411 59.8073 114.411 59.6717 114.381 59.5361C114.381 59.1632 114.402 58.3411 114.432 57.7478H114.411Z" fill="#37474F"/>
<path d="M124.364 57.5657L128.547 59.0701C128.246 59.1245 127.964 59.2559 127.729 59.4515C127.682 59.4896 124.364 58.3454 124.364 58.3454V57.5657Z" fill="#37474F"/>
<path d="M118.859 58.8369L116.749 61.3923L118.686 62.0746L118.859 58.8369Z" fill="#9C5C5C"/>
<path d="M118.859 58.8369L116.749 61.3923L118.686 62.0746L118.859 58.8369Z" fill="#803E3E"/>
<path d="M121.839 59.1547C121.84 59.2697 121.806 59.3824 121.743 59.4784C121.68 59.5744 121.589 59.6495 121.483 59.6941C121.377 59.7387 121.261 59.7508 121.148 59.7289C121.035 59.707 120.931 59.652 120.849 59.571C120.768 59.49 120.712 59.3865 120.689 59.2738C120.666 59.1611 120.678 59.0441 120.722 58.9378C120.765 58.8314 120.84 58.7405 120.935 58.6765C121.031 58.6125 121.143 58.5784 121.258 58.5784C121.334 58.5778 121.41 58.5923 121.48 58.621C121.551 58.6497 121.615 58.6921 121.669 58.7457C121.723 58.7993 121.765 58.863 121.795 58.9332C121.824 59.0034 121.839 59.0787 121.839 59.1547Z" fill="#263238"/>
<path d="M116.974 58.998C116.974 59.1128 116.941 59.2253 116.878 59.3212C116.815 59.4172 116.725 59.4922 116.619 59.5369C116.513 59.5817 116.397 59.594 116.284 59.5724C116.171 59.5508 116.067 59.4963 115.986 59.4157C115.904 59.3351 115.848 59.2321 115.824 59.1196C115.801 59.0072 115.812 58.8904 115.855 58.784C115.898 58.6776 115.972 58.5863 116.067 58.5218C116.162 58.4574 116.274 58.4225 116.389 58.4216C116.465 58.4211 116.541 58.4356 116.611 58.4642C116.682 58.4929 116.746 58.5352 116.801 58.5887C116.855 58.6422 116.898 58.7059 116.928 58.7761C116.958 58.8463 116.973 58.9217 116.974 58.998Z" fill="#263238"/>
<path d="M117.288 56.4257L115.737 56.6037C115.765 56.4373 115.842 56.2831 115.959 56.1607C116.075 56.0384 116.225 55.9536 116.39 55.9172C116.572 55.9093 116.753 55.9528 116.912 56.0427C117.071 56.1326 117.201 56.2653 117.288 56.4257Z" fill="#263238"/>
<path d="M120.678 56.5741H122.237C122.192 56.4115 122.098 56.2668 121.968 56.1598C121.837 56.0528 121.677 55.9888 121.508 55.9766C121.328 55.9894 121.155 56.0521 121.008 56.1576C120.862 56.2631 120.747 56.4073 120.678 56.5741Z" fill="#263238"/>
<path d="M120.915 63.1001L118.686 63.7781C118.827 64.0404 119.05 64.2497 119.32 64.3743C119.591 64.4989 119.895 64.5321 120.186 64.4689C120.732 64.329 120.982 63.6637 120.915 63.1001Z" fill="#9C5C5C"/>
<path d="M120.915 63.1001L118.686 63.7781C118.827 64.0404 119.05 64.2497 119.32 64.3743C119.591 64.4989 119.895 64.5321 120.186 64.4689C120.732 64.329 120.982 63.6637 120.915 63.1001Z" fill="#5E2828"/>
<path d="M119.458 64.435C119.692 64.5201 119.945 64.5349 120.187 64.4774C120.394 64.3997 120.573 64.2624 120.702 64.0829C120.831 63.9034 120.904 63.6897 120.912 63.4688C120.619 63.4272 120.322 63.4823 120.064 63.6256C119.763 63.8045 119.545 64.0956 119.458 64.435Z" fill="#9C5C5C"/>
<path d="M119.458 64.435C119.692 64.5201 119.945 64.5349 120.187 64.4774C120.394 64.3997 120.573 64.2624 120.702 64.0829C120.831 63.9034 120.904 63.6897 120.912 63.4688C120.619 63.4272 120.322 63.4823 120.064 63.6256C119.763 63.8045 119.545 64.0956 119.458 64.435Z" fill="#803E3E"/>
<path d="M119.645 72.5843C121.674 72.5504 122.916 74.1692 124.772 74.7032L128.557 70.618L127.09 68.4398C126.796 68.0059 126.415 67.6379 125.971 67.3591V68.1474C125.967 68.3782 125.903 68.6041 125.786 68.803C125.668 69.0019 125.502 69.1673 125.302 69.2831L119.645 72.5843Z" fill="#37474F"/>
<path d="M119.644 72.5843C118.517 72.2369 116.83 73.648 116.83 73.648C117.419 70.3807 119.203 69.0967 119.64 69.0967L119.644 72.5843Z" fill="#37474F"/>
</svg>
